HIERARCHY
ROOT Hips
{
	OFFSET 0.00000 0.00000 0.00000
	CHANNELS 6 Xposition Yposition Zposition Zrotation Yrotation Xrotation 
	JOINT LHipJoint
	{
		OFFSET 0 0 0
		CHANNELS 3 Zrotation Yrotation Xrotation
		JOINT LeftUpLeg
		{
			OFFSET 1.66553 -1.82942 0.76350
			CHANNELS 3 Zrotation Yrotation Xrotation
			JOINT LeftLeg
			{
				OFFSET 2.41740 -6.64177 0.00000
				CHANNELS 3 Zrotation Yrotation Xrotation
				JOINT LeftFoot
				{
					OFFSET 2.71614 -7.46254 0.00000
					CHANNELS 3 Zrotation Yrotation Xrotation
					JOINT LeftToeBase
					{
						OFFSET 0.08005 -0.21993 1.82495
						CHANNELS 3 Zrotation Yrotation Xrotation
						End Site
						{
							OFFSET 0.00000 -0.00000 0.93441
						}
					}
				}
			}
		}
	}
	JOINT RHipJoint
	{
		OFFSET 0 0 0
		CHANNELS 3 Zrotation Yrotation Xrotation
		JOINT RightUpLeg
		{
			OFFSET -1.63725 -1.82942 0.76350
			CHANNELS 3 Zrotation Yrotation Xrotation
			JOINT RightLeg
			{
				OFFSET -2.40538 -6.60872 0.00000
				CHANNELS 3 Zrotation Yrotation Xrotation
				JOINT RightFoot
				{
					OFFSET -2.73312 -7.50919 0.00000
					CHANNELS 3 Zrotation Yrotation Xrotation
					JOINT RightToeBase
					{
						OFFSET -0.15567 -0.42769 1.93504
						CHANNELS 3 Zrotation Yrotation Xrotation
						End Site
						{
							OFFSET -0.00000 -0.00000 1.00100
						}
					}
				}
			}
		}
	}
	JOINT LowerBack
	{
		OFFSET 0 0 0
		CHANNELS 3 Zrotation Yrotation Xrotation
		JOINT Spine
		{
			OFFSET 0.00326 2.30118 -0.13017
			CHANNELS 3 Zrotation Yrotation Xrotation
			JOINT Spine1
			{
				OFFSET 0.02887 2.30677 0.00834
				CHANNELS 3 Zrotation Yrotation Xrotation
				JOINT Neck
				{
					OFFSET 0 0 0
					CHANNELS 3 Zrotation Yrotation Xrotation
					JOINT Neck1
					{
						OFFSET 0.12946 1.68326 0.00713
						CHANNELS 3 Zrotation Yrotation Xrotation
						JOINT Head
						{
							OFFSET -0.24364 1.67243 -0.16079
							CHANNELS 3 Zrotation Yrotation Xrotation
							End Site
							{
								OFFSET -0.09229 1.70819 -0.06383
							}
						}
					}
				}
				JOINT LeftShoulder
				{
					OFFSET 0 0 0
					CHANNELS 3 Zrotation Yrotation Xrotation
					JOINT LeftArm
					{
						OFFSET 3.28104 0.69567 -0.00556
						CHANNELS 3 Zrotation Yrotation Xrotation
						JOINT LeftForeArm
						{
							OFFSET 5.70706 -0.00000 -0.00000
							CHANNELS 3 Zrotation Yrotation Xrotation
							JOINT LeftHand
							{
								OFFSET 3.33243 -0.00000 0.00000
								CHANNELS 3 Zrotation Yrotation Xrotation
								JOINT LeftFingerBase
								{
									OFFSET 0 0 0
									CHANNELS 3 Zrotation Yrotation Xrotation
									JOINT LeftHandIndex1
									{
										OFFSET 0.79269 -0.00000 0.00000
										CHANNELS 3 Zrotation Yrotation Xrotation
										End Site
										{
											OFFSET 0.63909 -0.00000 0.00000
										}
									}
								}
								JOINT LThumb
								{
									OFFSET 0 0 0
									CHANNELS 3 Zrotation Yrotation Xrotation
									End Site
									{
										OFFSET 0.64884 -0.00000 0.64884
									}
								}
							}
						}
					}
				}
				JOINT RightShoulder
				{
					OFFSET 0 0 0
					CHANNELS 3 Zrotation Yrotation Xrotation
					JOINT RightArm
					{
						OFFSET -3.40955 0.64424 0.14010
						CHANNELS 3 Zrotation Yrotation Xrotation
						JOINT RightForeArm
						{
							OFFSET -5.88176 -0.00000 -0.00000
							CHANNELS 3 Zrotation Yrotation Xrotation
							JOINT RightHand
							{
								OFFSET -3.28156 -0.00000 0.00000
								CHANNELS 3 Zrotation Yrotation Xrotation
								JOINT RightFingerBase
								{
									OFFSET 0 0 0
									CHANNELS 3 Zrotation Yrotation Xrotation
									JOINT RightHandIndex1
									{
										OFFSET -0.86313 -0.00000 0.00000
										CHANNELS 3 Zrotation Yrotation Xrotation
										End Site
										{
											OFFSET -0.69587 -0.00000 0.00000
										}
									}
								}
								JOINT RThumb
								{
									OFFSET 0 0 0
									CHANNELS 3 Zrotation Yrotation Xrotation
									End Site
									{
										OFFSET -0.70650 -0.00000 0.70650
									}
								}
							}
						}
					}
				}
			}
		}
	}
}
MOTION
Frames: 9
Frame Time: .0083333
10.3591 16.6607 -10.1788 0 0 0 0 0 0 -21 0 0 0 0 0 0 0 0 0 0 0 0 0 0 21 0 0 0 0 0 0 0 0 0 0 0 0 0 0 0 0 0 0 0 0 0 0 -16 0 0 21 0 0 11 0 0 0 -8 0 0 0 0 0 0 0 0 0 0 0 0 0 0 0 0 0 0 0 0 8 0 0 0 0 0 0 0 0 0 0 0 0 0 0 0 0 0
10.3591 16.6607 -10.1788 -162.9820 -86.9045 159.1890 0.0000 0.0000 0.0000 -17.8470 21.5713 -25.3971 7.7314 15.9181 51.5893 2.9980 -4.4845 -31.7760 0.0007 -0.1721 -0.4727 0.0000 0.0000 0.0000 21.2379 -11.7922 -17.9101 -7.1467 -15.4542 49.4272 -3.4298 10.1953 -33.5213 -2.1194 -9.1104 26.1412 1.8946 -2.1536 5.5992 0.3359 -2.7285 -0.8817 -0.4656 -1.3957 -4.1226 16.6110 7.8575 3.6283 -18.1614 11.0043 -1.8876 -8.1548 5.6204 0.8422 -0.0000 -0.0000 0.0000 -48.5723 18.0448 80.4913 36.7686 -46.0345 -16.0733 -0.0000 -0.0000 10.6214 7.3190 -0.0640 -0.0082 -7.1250 0.0000 -0.0000 -15.0256 29.7338 5.7754 -0.0000 -0.0000 0.0000 45.4061 -3.3372 78.7219 -61.0606 56.5860 -35.2250 0.0000 0.0000 28.7787 14.1850 33.9989 8.0448 7.1250 -0.0000 -0.0000 25.0532 2.1745 28.8577
10.3508 16.7297 -10.1817 -156.3870 -86.4847 152.8550 0.0000 0.0000 0.0000 -17.4290 21.2272 -25.1288 7.5074 15.7447 50.7681 2.8934 -2.8856 -31.5036 0.0368 -1.2389 -3.4065 0.0000 0.0000 0.0000 21.9388 -11.4786 -17.4376 -6.7927 -15.1548 48.0859 -3.3145 10.1004 -32.9296 -2.3477 -9.5556 27.5493 2.3795 -2.0718 5.2652 0.5312 -2.5855 -1.1237 -0.5551 -1.3369 -4.1950 16.0275 7.8469 2.8764 -17.4549 10.9699 -0.7978 -7.7747 5.5609 1.1950 -0.0000 -0.0000 0.0000 -48.8728 17.9472 80.6863 36.7299 -46.0086 -16.0454 -0.0000 -0.0000 10.3119 7.4024 0.6424 0.0835 -7.1250 0.0000 -0.0000 -15.0689 30.4235 5.5355 -0.0000 -0.0000 0.0000 45.9828 -3.9233 78.7505 -59.2805 56.1152 -33.7431 0.0000 0.0000 28.3823 14.3704 32.3212 7.8001 7.1250 -0.0000 -0.0000 25.2629 0.6185 28.4478
10.3368 16.7960 -10.1895 -157.1510 -86.4220 153.6640 0.0000 0.0000 0.0000 -17.5240 20.9573 -24.4961 7.2401 15.5308 49.7767 2.8939 -2.5126 -31.5908 0.0342 -1.1942 -3.2833 0.0000 0.0000 0.0000 21.9738 -11.4955 -16.7612 -6.4576 -14.8576 46.7917 -3.2743 9.4802 -32.7414 -2.1859 -9.2430 26.5584 2.4070 -2.0545 4.9611 0.5362 -2.5683 -1.2259 -0.5760 -1.3296 -4.1298 15.8404 7.8356 2.5604 -17.4332 10.9489 -0.3422 -7.7149 5.5319 1.3628 0.0000 -0.0000 0.0000 -49.0260 17.8554 80.8922 36.9686 -46.1677 -16.2174 -0.0000 -0.0000 9.9590 7.5155 1.3174 0.1738 -7.1250 0.0000 -0.0000 -15.0880 31.0837 5.2954 0.0000 -0.0000 0.0000 46.4458 -4.3554 78.7571 -57.9664 55.7432 -32.6546 0.0000 0.0000 28.4137 14.4193 31.8656 7.7300 7.1250 -0.0000 -0.0000 25.3219 0.1965 28.3328
10.3221 16.8566 -10.1976 -158.9560 -86.5143 155.6080 0.0000 0.0000 0.0000 -17.7953 20.6495 -23.9771 6.9851 15.3193 48.8179 2.8784 -2.3395 -31.5439 0.0380 -1.2586 -3.4606 0.0000 0.0000 0.0000 21.9183 -11.5324 -16.1698 -6.1273 -14.5506 45.4905 -3.2260 8.7553 -32.5237 -1.9862 -8.8373 25.2877 2.3300 -2.0073 4.4830 0.4945 -2.5250 -1.3055 -0.5959 -1.3063 -3.9393 15.9767 7.7820 2.8209 -17.7965 10.8813 -0.6848 -7.8772 5.5117 1.2400 -0.0000 -0.0000 0.0000 -49.2926 17.6043 80.9374 36.9955 -46.1856 -16.2368 -0.0000 -0.0000 9.8379 7.3994 1.9216 0.2495 -7.1250 0.0000 -0.0000 -15.2774 31.6683 5.1435 -0.0000 -0.0000 0.0000 46.9022 -4.8988 78.4416 -56.7381 55.3761 -31.6415 0.0000 0.0000 28.4998 14.6252 31.9129 7.8542 7.1250 -0.0000 -0.0000 25.4202 0.2461 28.4933
10.3120 16.9173 -10.2042 -155.8900 -86.4999 152.7770 0.0000 0.0000 0.0000 -17.7413 20.1883 -23.5416 6.7233 15.0944 47.8199 2.7118 -1.3591 -30.8327 0.0644 -1.6372 -4.5040 0.0000 0.0000 0.0000 22.2993 -11.4110 -15.6631 -5.8090 -14.2406 44.2102 -3.0894 8.6841 -31.7974 -2.1977 -9.2662 26.6316 2.5778 -1.9877 4.0938 0.5233 -2.4937 -1.5240 -0.7162 -1.2993 -3.9549 15.6529 7.7787 3.2965 -17.3656 10.8759 -1.1549 -7.7188 5.5329 0.9800 0.0000 -0.0000 0.0000 -49.6049 17.5176 80.8752 36.7857 -46.0459 -16.0856 -0.0000 -0.0000 9.9897 7.0347 2.2226 0.2742 -7.1250 0.0000 -0.0000 -15.6132 31.9488 5.1546 0.0000 -0.0000 0.0000 47.5217 -5.5625 78.1693 -55.3588 54.9407 -30.5094 0.0000 0.0000 28.5230 14.8950 31.6646 7.9487 7.1250 -0.0000 -0.0000 25.5735 0.0235 28.6021
10.3027 16.9807 -10.2153 -155.9350 -86.5333 153.0860 0.0000 0.0000 0.0000 -17.8858 19.6303 -23.1037 6.4633 14.8628 46.8139 2.5466 -0.2502 -30.1741 0.0715 -1.7257 -4.7481 0.0000 0.0000 0.0000 22.4762 -11.1209 -15.1603 -5.5036 -13.9295 42.9556 -2.9480 8.8854 -31.0170 -2.5916 -10.0026 28.9852 2.6418 -2.0090 3.7704 0.4254 -2.5294 -1.8301 -0.8547 -1.3249 -4.0983 15.5053 7.7979 3.1900 -16.8013 10.9256 -0.7075 -7.4976 5.5495 1.0908 0.0000 -0.0000 0.0000 -49.7312 17.6532 80.7397 36.6027 -45.9232 -15.9540 -0.0000 -0.0000 10.1989 6.7803 2.2336 0.2655 -7.1250 0.0000 -0.0000 -15.8138 31.9509 5.2247 0.0000 -0.0000 0.0000 48.3354 -6.0316 78.2843 -53.6069 54.3505 -29.0806 0.0000 0.0000 28.6547 14.4316 31.6601 7.6926 7.1250 -0.0000 -0.0000 25.3441 0.0059 28.2736
10.2913 17.0438 -10.2253 -160.3340 -86.6368 157.6980 0.0000 0.0000 0.0000 -18.3068 19.2218 -22.6342 6.2146 14.6331 45.8371 2.4801 0.0889 -29.8789 0.0547 -1.5088 -4.1499 0.0000 0.0000 0.0000 22.3274 -10.7297 -14.5659 -5.2104 -13.6169 41.7238 -2.8760 8.8803 -30.6194 -2.8414 -10.4338 30.3931 2.4316 -2.0280 3.4092 0.2627 -2.5814 -2.0509 -0.9093 -1.3503 -4.1228 15.7789 7.8483 2.8707 -16.7490 11.0279 -0.0427 -7.4904 5.5841 1.3638 -0.0000 0.0000 0.0000 -49.9485 17.7462 80.4190 36.4451 -45.8169 -15.8409 -0.0000 -0.0000 10.3352 6.7709 2.2195 0.2635 -7.1250 0.0000 -0.0000 -15.8187 31.9369 5.2319 -0.0000 0.0000 0.0000 49.0642 -6.3539 78.3574 -51.8692 53.7221 -27.6741 0.0000 0.0000 28.8105 13.7589 31.9677 7.3867 7.1250 -0.0000 -0.0000 24.9860 0.2757 27.9037
10.2810 17.0972 -10.2283 -157.0560 -86.6281 154.5190 0.0000 0.0000 0.0000 -18.1810 18.8464 -22.0563 5.9799 14.4088 44.9010 2.4352 0.2045 -29.6424 0.0331 -1.1747 -3.2297 0.0000 0.0000 0.0000 22.6445 -10.5539 -13.9173 -4.9351 -13.3103 40.5415 -2.8311 8.4717 -30.3884 -2.8416 -10.4341 30.3942 2.7043 -2.0334 3.1423 0.2892 -2.5828 -2.1797 -1.0409 -1.3606 -4.1170 15.7648 7.9327 2.7796 -16.6400 11.1499 0.1746 -7.4371 5.6398 1.4542 -0.0000 0.0000 0.0000 -50.2837 17.5833 80.3342 36.2529 -45.6863 -15.7032 -0.0000 -0.0000 10.2270 6.8939 2.4040 0.2906 -7.1250 0.0000 -0.0000 -15.7549 32.1200 5.1371 -0.0000 0.0000 0.0000 49.6452 -6.7651 78.1392 -50.3527 53.1367 -26.4561 0.0000 0.0000 28.8355 13.7446 32.0186 7.3892 7.1250 -0.0000 -0.0000 24.9751 0.3227 27.9104
